<svg width="21" height="21" viewBox="0 0 21 21" fill="none" xmlns="http://www.w3.org/2000/svg">
    <path fill-rule="evenodd" clip-rule="evenodd" d="M1.25021 1.25039C0.46916 2.03144 0.460295 3.30663 1.24134 4.08768L7.65393 10.5003L1.24104 16.9132C0.459993 17.6942 0.468856 18.9694 1.24991 19.7504C2.03095 20.5315 3.30615 20.5404 4.08719 19.7593L10.5001 13.3464L16.9129 19.7593C17.694 20.5403 18.9692 20.5314 19.7502 19.7504C20.5313 18.9693 20.5401 17.6942 19.7591 16.9131L13.3462 10.5003L19.7588 4.08773C20.5398 3.30669 20.531 2.03149 19.7499 1.25044C18.9689 0.469396 17.6937 0.460531 16.9126 1.24158L10.5001 7.65411L4.0875 1.24153C3.30645 0.460482 2.03126 0.469344 1.25021 1.25039Z"/>
</svg>
