<svg width="51" height="50" viewBox="0 0 51 50" fill="none" xmlns="http://www.w3.org/2000/svg">
<g opacity="0.5">
<path d="M49.6279 25C49.6279 38.5305 38.6484 49.5 25.1035 49.5C11.5586 49.5 0.579102 38.5305 0.579102 25C0.579102 11.4695 11.5586 0.5 25.1035 0.5C38.6484 0.5 49.6279 11.4695 49.6279 25Z" stroke="white"/>
<path d="M32.7197 10.0062L28.8256 10C24.4507 10 21.6234 12.8978 21.6234 17.383V20.7871H17.708C17.3697 20.7871 17.0957 21.0611 17.0957 21.3991V26.3313C17.0957 26.6693 17.37 26.943 17.708 26.943H21.6234V39.3883C21.6234 39.7263 21.8974 40 22.2357 40H27.3441C27.6825 40 27.9565 39.726 27.9565 39.3883V26.943H32.5344C32.8728 26.943 33.1468 26.6693 33.1468 26.3313L33.1486 21.3991C33.1486 21.2369 33.084 21.0814 32.9693 20.9666C32.8547 20.8517 32.6985 20.7871 32.536 20.7871H27.9565V17.9014C27.9565 16.5145 28.2873 15.8104 30.0958 15.8104L32.7191 15.8094C33.0571 15.8094 33.3311 15.5354 33.3311 15.1977V10.618C33.3311 10.2806 33.0574 10.0069 32.7197 10.0062Z" fill="white"/>
</g>
</svg>
