<svg width="51" height="50" viewBox="0 0 51 50" fill="none" xmlns="http://www.w3.org/2000/svg">
<g opacity="0.5">
<path d="M49.8037 25C49.8037 38.5305 38.8242 49.5 25.2793 49.5C11.7344 49.5 0.754883 38.5305 0.754883 25C0.754883 11.4695 11.7344 0.5 25.2793 0.5C38.8242 0.5 49.8037 11.4695 49.8037 25Z" stroke="white"/>
<path d="M33.3642 18.0763C32.7278 18.0763 32.2092 17.5582 32.2092 16.9225V14.6148C32.2092 13.979 32.7278 13.4609 33.3642 13.4609H35.6741C36.3105 13.4609 36.8291 13.979 36.8291 14.6148V16.9225C36.8291 17.5582 36.3105 18.0763 35.6741 18.0763H33.3642Z" fill="white"/>
<path d="M25.2792 20.6016C24.4407 20.6016 23.6669 20.8473 23.0005 21.2512C23.2084 21.1866 23.4243 21.1439 23.6519 21.1439C24.8854 21.1439 25.8844 22.1419 25.8844 23.3754C25.8844 24.6054 24.8854 25.6058 23.6519 25.6058C22.4184 25.6058 21.4193 24.6066 21.4193 23.3754C21.4193 23.1458 21.4643 22.93 21.5279 22.7235C21.1213 23.3893 20.8765 24.1623 20.8765 25C20.8765 27.4312 22.8457 29.3996 25.2804 29.3996C27.7116 29.3996 29.6843 27.4323 29.6843 25C29.6843 22.5677 27.7104 20.6016 25.2792 20.6016Z" fill="white"/>
<path d="M25.2793 18.0772C29.1057 18.0772 32.2091 21.1765 32.2091 25.0003C32.2091 28.8242 29.1045 31.9234 25.2793 31.9234C21.4529 31.9234 18.3495 28.8242 18.3495 25.0003C18.3495 21.1765 21.4529 18.0772 25.2793 18.0772ZM25.2793 15.7695C20.1847 15.7695 16.0396 19.9107 16.0396 25.0003C16.0396 30.0899 20.1847 34.2311 25.2793 34.2311C30.3738 34.2311 34.519 30.0899 34.519 25.0003C34.519 19.9107 30.3738 15.7695 25.2793 15.7695Z" fill="white"/>
<path d="M34.6635 10H15.8951C12.7848 10 10.2646 12.5177 10.2646 15.625V34.375C10.2646 37.4823 12.7848 40 15.8951 40H34.6635C37.7738 40 40.2939 37.4823 40.2939 34.375V15.625C40.2939 12.5177 37.7738 10 34.6635 10ZM37.984 20.3846H30.4339C31.5346 21.6112 32.2091 23.2242 32.2091 25C32.2091 28.8238 29.1046 31.9231 25.2793 31.9231C21.4529 31.9231 18.3495 28.8238 18.3495 25C18.3495 23.2242 19.024 21.61 20.1247 20.3846H12.5746V15.625C12.5746 13.7962 14.0645 12.3077 15.8951 12.3077H34.6635C36.4952 12.3077 37.984 13.7962 37.984 15.625V20.3846Z" fill="white"/>
</g>
</svg>
