<svg width="56" height="39" viewBox="0 0 56 39" fill="none" xmlns="http://www.w3.org/2000/svg">
<path d="M42.8808 22.1309C45.9051 19.1374 47.3633 16.5716 47.2013 16.0727C47.0392 14.7185 46.4452 12.9367 45.4191 12.6516C44.933 12.7941 42.8808 13.9345 41.9627 14.077C42.2327 13.7207 41.3146 11.9388 40.8825 12.0101C40.6125 12.0101 39.4784 12.8654 39.3164 14.2196C39.2083 14.7898 39.6944 15.645 39.9104 15.9301C39.6404 16.3578 39.4244 16.7854 39.1543 17.213C38.2902 18.6385 37.3181 19.9214 36.292 21.133C36.022 21.4181 35.752 21.7745 35.4279 21.9883C35.3739 22.0596 35.1039 22.3447 34.9959 22.2021C34.5638 21.917 37.1561 16.7141 37.8042 15.5025C38.0202 15.0748 37.1561 14.1483 36.076 13.8632C35.86 13.1505 34.8879 12.2952 34.1858 12.2952C31.9715 12.2952 29.7033 14.9323 28.3531 17.7119C28.1371 18.1396 27.9211 18.5672 27.651 18.9236C27.543 19.0661 27.435 19.2087 27.327 19.3512C25.9768 21.4181 23.2765 24.6967 22.3044 23.8414C21.3323 22.9861 21.6023 21.5607 22.4124 19.3512C25.0047 17.5694 30.9994 9.80065 31.3775 6.30827C31.4855 5.453 30.0273 3.45736 28.8392 3.67118C26.5169 4.09881 18.794 17.4981 19.1181 22.1309C19.2801 24.4116 21.5483 26.6211 22.5205 26.6211C23.8166 26.5498 25.8148 23.8414 27.219 21.7032C27.219 21.8458 27.219 21.9883 27.219 22.1309C27.327 23.6989 29.0552 25.6945 29.9193 25.4807C30.7294 25.3381 31.7555 22.9861 32.1335 22.416C32.2416 23.8414 33.2677 25.4094 34.2398 25.552C34.5098 25.552 34.7798 25.4094 34.9959 25.2669C35.3199 24.9818 35.6439 24.6967 35.914 24.3403C36.6161 23.485 37.2101 22.5585 37.8042 21.632C38.7763 20.0639 39.6404 18.4247 40.6665 16.9992C40.7205 16.9279 40.7745 16.7854 40.8285 16.7141C40.8285 16.7141 40.9365 16.5003 40.9906 16.5003C42.5027 16.6428 43.7989 15.5738 44.609 15.3599C42.8268 18.2109 41.0446 20.7054 39.8564 21.7032C38.3443 21.917 38.2902 22.701 38.1822 23.2712C38.0202 24.768 38.3442 25.7658 38.6143 25.552C39.0463 25.2669 39.8024 24.6967 40.1805 24.4116C42.2867 24.6254 44.825 25.1243 45.4191 26.0509C46.2291 27.12 46.1751 25.4807 45.149 23.3425C44.825 22.4872 43.9069 22.2734 42.8808 22.1309ZM29.5412 6.237C30.7834 6.30827 25.4368 15.3599 22.8985 18.0683C24.3027 14.1483 28.8932 6.16573 29.5412 6.237ZM30.2973 22.0596C29.1632 22.0596 32.8896 14.077 35.4819 14.861C35.3739 15.0036 31.0534 22.0596 30.2973 22.0596ZM54.4381 23.0574C53.628 24.1978 52.9799 25.0531 51.7378 25.4094C50.9817 25.6232 50.3876 25.6232 49.6315 25.3381C49.0375 25.0531 48.5514 24.6254 48.0654 24.0552C47.4173 23.2712 46.7692 22.2021 46.7692 20.9905C46.7692 17.0705 49.8476 12.4377 51.8458 12.1527C53.0879 11.9388 55.0322 14.077 54.9781 15.7163C54.8701 17.1418 53.412 20.7767 51.3597 20.9192C50.7117 21.0618 49.7395 20.1352 49.5775 19.6363C49.3075 20.7054 49.1995 21.917 49.9556 22.6298C51.6298 24.1265 52.9259 22.9861 54.3841 21.7032C55.7882 20.5629 55.0862 22.1309 54.4381 23.0574ZM49.9016 18.781C51.4137 19.6363 53.682 14.4334 52.9799 14.4334C52.1158 14.5759 50.1716 17.8545 49.9016 18.781ZM15.5537 6.09445C15.6077 6.16573 15.6077 6.16573 15.5537 6.09445C15.6077 6.16573 15.6077 6.16573 15.5537 6.09445ZM15.6617 6.37955C15.6617 6.37955 15.6617 6.45082 15.6617 6.37955C15.6617 6.45082 15.6617 6.37955 15.6617 6.37955ZM15.6617 6.30827C15.6077 6.30827 15.6077 6.30827 15.6617 6.30827C15.6077 6.30827 15.6077 6.30827 15.6617 6.30827ZM14.7436 7.80501C14.7436 7.80501 14.7436 7.73373 14.7436 7.80501C14.7436 7.73373 14.7436 7.80501 14.7436 7.80501ZM14.3115 8.37519C14.3655 8.30392 14.3655 8.30392 14.4195 8.23264C14.3655 8.30392 14.3655 8.30392 14.3115 8.37519ZM15.4997 5.95191C15.4997 5.95191 15.5537 6.02318 15.4997 5.95191C15.5537 6.02318 15.4997 5.95191 15.4997 5.95191ZM14.0955 8.73155C14.0415 8.80283 14.0415 8.80283 13.9875 8.8741C14.0415 8.80283 14.0415 8.80283 14.0955 8.73155ZM15.3916 6.94973L15.3376 7.021C15.3376 7.021 15.3376 6.94973 15.3916 6.94973ZM14.7436 5.16791C14.6896 5.16791 14.6896 5.16791 14.6356 5.09663C14.6896 5.09663 14.7436 5.16791 14.7436 5.16791ZM14.3115 5.02536C14.2575 5.02536 14.2575 5.02536 14.2035 5.02536C14.2575 4.95409 14.2575 4.95409 14.3115 5.02536ZM18.254 3.45736C18.308 3.45736 18.308 3.45736 18.362 3.52863C18.308 3.52863 18.308 3.45736 18.254 3.45736ZM13.9335 4.95409C13.9875 4.95409 14.0415 4.95409 14.0415 4.95409C13.9875 4.95409 13.9875 4.95409 13.9335 4.95409ZM15.1216 5.38173L15.0676 5.31045C15.0676 5.38173 15.0676 5.38173 15.1216 5.38173ZM15.3376 5.66682L15.3916 5.73809C15.3376 5.66682 15.3376 5.66682 15.3376 5.66682ZM15.1756 5.453L15.2296 5.52427C15.2296 5.52427 15.2296 5.52427 15.1756 5.453ZM15.4456 5.88064L15.3916 5.80936C15.4456 5.80936 15.4456 5.88064 15.4456 5.88064ZM14.8516 5.23918C14.9056 5.23918 14.9056 5.31045 14.9596 5.31045C14.9056 5.23918 14.9056 5.23918 14.8516 5.23918ZM19.2261 4.52645C19.2801 4.669 19.2801 4.81154 19.3341 5.02536C19.2801 4.88282 19.2261 4.669 19.2261 4.52645ZM18.794 7.23482C18.794 7.16355 18.848 7.16355 18.848 7.09228C18.848 7.16355 18.794 7.23482 18.794 7.23482ZM18.578 7.66246C18.578 7.73373 18.578 7.73373 18.578 7.66246C18.578 7.73373 18.578 7.73373 18.578 7.66246ZM17.4979 9.15919C17.5519 9.08792 17.5519 9.08792 17.6059 9.01665C17.5519 9.08792 17.5519 9.15919 17.4979 9.15919ZM19.0641 6.66464L19.0101 6.73591C19.0101 6.73591 19.01 6.73591 19.0641 6.66464ZM18.308 8.0901C18.308 8.16137 18.254 8.16137 18.254 8.23264C18.254 8.16137 18.308 8.16137 18.308 8.0901ZM13.8255 4.95409C13.6634 4.95409 13.5554 5.02536 13.4474 5.16791C13.5014 5.09663 13.6094 5.02536 13.6634 4.95409C13.7174 4.95409 13.7715 4.95409 13.8255 4.95409ZM19.1721 6.16573V6.237C19.1721 6.237 19.1721 6.237 19.1721 6.16573ZM18.578 3.67118C18.686 3.74245 18.74 3.81372 18.848 3.885C18.794 3.81372 18.686 3.74245 18.578 3.67118ZM19.2801 5.73809C19.2801 5.80936 19.2801 5.80936 19.2801 5.88064C19.2801 5.80936 19.2801 5.73809 19.2801 5.73809ZM16.2557 10.5134C16.3097 10.5134 16.3097 10.4421 16.3637 10.4421C16.3097 10.4421 16.3097 10.5134 16.2557 10.5134ZM14.4735 12.0101C14.4195 12.0101 14.4195 12.0814 14.3655 12.0814C14.4195 12.0814 14.4195 12.0814 14.4735 12.0101ZM14.9596 11.6537L14.9056 11.725C14.9056 11.6537 14.9596 11.6537 14.9596 11.6537ZM13.2314 10.157C13.2854 10.0857 13.2854 10.0145 13.3394 10.0145C13.2854 10.0857 13.2314 10.157 13.2314 10.157ZM15.3376 11.3687C15.3916 11.3687 15.3916 11.2974 15.4456 11.2974C15.3916 11.2974 15.3376 11.2974 15.3376 11.3687ZM17.2278 9.51555C17.1738 9.51555 17.1738 9.58683 17.1198 9.58683C17.1738 9.58683 17.2278 9.58683 17.2278 9.51555ZM16.7958 10.0145C16.7958 10.0145 16.7418 10.0857 16.6878 10.0857C16.7418 10.0857 16.7418 10.0145 16.7958 10.0145ZM13.7174 9.37301C13.6634 9.37301 13.6634 9.44428 13.7174 9.37301C13.6634 9.44428 13.6634 9.37301 13.7174 9.37301ZM15.8237 10.941C15.8237 10.941 15.8237 10.8697 15.8237 10.941C15.8237 10.8697 15.8237 10.941 15.8237 10.941ZM14.4735 5.02536C14.5275 5.02536 14.5275 5.02536 14.5815 5.02536C14.5275 5.02536 14.4735 5.02536 14.4735 5.02536ZM13.3394 5.23918C13.2854 5.23918 13.2854 5.31045 13.2314 5.31045C13.2854 5.31045 13.3394 5.31045 13.3394 5.23918ZM18.524 12.8654C18.416 13.0079 18.254 13.1505 18.146 13.2217C18.254 13.0792 18.416 12.9367 18.524 12.8654ZM19.0101 12.2952C19.1181 12.1527 19.2261 12.0101 19.3341 11.8676C19.2261 12.0101 19.1181 12.1527 19.0101 12.2952ZM17.7139 13.6494C17.8219 13.5068 17.9839 13.4356 18.0919 13.293C17.9839 13.4356 17.8219 13.5068 17.7139 13.6494ZM18.956 12.3665C18.848 12.509 18.74 12.6516 18.578 12.7941C18.74 12.6516 18.848 12.509 18.956 12.3665ZM11.4492 7.73373C11.5032 7.66246 11.5572 7.59119 11.5572 7.51991C11.5032 7.66246 11.5032 7.66246 11.4492 7.73373ZM11.9893 6.94973C11.9352 7.021 11.9352 7.021 11.8812 7.09228C11.9352 7.021 11.9893 7.021 11.9893 6.94973ZM10.8551 8.58901C10.8011 8.66028 10.7471 8.73155 10.6931 8.80283C10.7471 8.73155 10.8011 8.66028 10.8551 8.58901ZM10.3151 9.44428C10.3691 9.37301 10.4231 9.23046 10.4771 9.15919C10.4231 9.23046 10.3691 9.37301 10.3151 9.44428ZM12.2053 6.66464C12.2593 6.59337 12.3133 6.52209 12.3133 6.52209C12.3133 6.59337 12.2593 6.59337 12.2053 6.66464ZM13.0154 5.59555C13.0694 5.52427 13.0694 5.52427 13.1234 5.453C13.1234 5.52427 13.0694 5.59555 13.0154 5.59555ZM12.7993 5.95191C12.8533 5.88064 12.8533 5.88064 12.9074 5.80936C12.8533 5.80936 12.8533 5.88064 12.7993 5.95191ZM12.6373 6.09445C12.5833 6.16573 12.5293 6.16573 12.5293 6.237C12.5293 6.237 12.5833 6.16573 12.6373 6.09445ZM11.0711 8.30392C11.1252 8.23264 11.1792 8.16137 11.2332 8.0901C11.1792 8.16137 11.1252 8.23264 11.0711 8.30392ZM8.15481 12.9367C8.10081 13.0079 8.0468 13.1505 7.9928 13.293C8.0468 13.1505 8.10081 13.0079 8.15481 12.9367ZM7.77677 13.5781C7.72276 13.7207 7.66876 13.7919 7.61475 13.9345C7.66876 13.7919 7.72276 13.7207 7.77677 13.5781ZM9.93702 10.0145C9.99102 9.94319 10.045 9.80065 10.099 9.72938C10.045 9.80065 9.99102 9.94319 9.93702 10.0145ZM8.37084 12.5803C8.42485 12.509 8.47885 12.3665 8.53286 12.2952C8.47885 12.3665 8.42485 12.509 8.37084 12.5803ZM9.72099 10.3708C9.66699 10.4421 9.61298 10.5846 9.55897 10.6559C9.61298 10.5134 9.66699 10.4421 9.72099 10.3708ZM9.34295 10.941C9.28894 11.0123 9.23494 11.1548 9.18093 11.2261C9.18093 11.1548 9.23494 11.0836 9.34295 10.941ZM8.9109 11.5825C8.85689 11.6537 8.80289 11.7963 8.74888 11.8676C8.80289 11.7963 8.85689 11.725 8.9109 11.5825ZM17.2819 14.077C17.4439 13.9345 17.5519 13.8632 17.7139 13.7207C17.5519 13.7919 17.3899 13.9345 17.2819 14.077ZM19.7661 11.3687C19.8741 11.2261 19.9822 11.0836 20.0362 10.941C19.9282 11.0123 19.8741 11.2261 19.7661 11.3687ZM21.2243 7.44864C21.2243 7.23482 21.2243 7.09228 21.2243 6.87846C21.2783 7.021 21.2783 7.23482 21.2243 7.44864ZM5.50851 11.8676C5.4005 12.0101 5.13047 12.2239 4.91444 12.4377C5.13047 12.2952 5.4005 12.0814 5.50851 11.8676L5.56252 11.7963L5.50851 11.8676ZM21.0083 8.73155C20.9543 8.8741 20.9003 9.08792 20.8463 9.23046C20.9003 9.01665 20.9543 8.8741 21.0083 8.73155ZM20.5762 9.87192C20.5222 10.0145 20.4142 10.157 20.3602 10.3708C20.4682 10.157 20.5222 10.0145 20.5762 9.87192ZM20.6302 9.80065C20.6842 9.6581 20.7382 9.51556 20.8463 9.30174C20.7923 9.44428 20.6842 9.58683 20.6302 9.80065ZM21.1163 8.16137C21.0623 8.30392 21.0623 8.51773 21.0083 8.66028C21.0623 8.51773 21.1163 8.30392 21.1163 8.16137ZM21.2243 7.51991C21.2243 7.73373 21.1703 7.87628 21.1703 8.01882C21.1703 7.87628 21.2243 7.73373 21.2243 7.51991ZM20.3602 10.3708C20.3062 10.5134 20.1982 10.6559 20.0902 10.7985C20.1982 10.6559 20.2522 10.5134 20.3602 10.3708ZM7.9928 22.5585C7.9928 22.6298 7.93879 22.701 7.93879 22.7723C7.93879 22.701 7.93879 22.701 7.93879 22.6298C7.93879 22.6298 7.9928 22.6298 7.9928 22.5585ZM19.3341 5.31045C19.3341 5.23918 19.3341 5.09663 19.3341 5.02536C19.2801 5.09663 19.3341 5.23918 19.3341 5.31045ZM4.69842 12.6516C4.75243 12.5803 4.86044 12.509 4.91444 12.509C4.80643 12.509 4.75243 12.5803 4.69842 12.6516ZM4.21237 12.9367C4.15836 13.0079 4.05035 13.0079 3.99634 13.0079C4.05035 13.0079 4.15836 12.9367 4.21237 12.9367ZM19.7121 11.4399C19.6041 11.5825 19.4961 11.725 19.3881 11.8676C19.4961 11.725 19.6041 11.5825 19.7121 11.4399ZM12.9074 10.7272C12.9074 10.6559 12.9614 10.6559 12.9614 10.5846C12.9614 10.6559 12.9074 10.7272 12.9074 10.7272ZM17.9839 8.58901C17.9839 8.66028 17.9299 8.66028 17.9839 8.58901C17.9299 8.66028 17.9839 8.66028 17.9839 8.58901ZM13.9875 12.3665C13.9335 12.3665 13.9335 12.3665 13.9875 12.3665C13.9875 12.3665 14.0415 12.3665 14.0415 12.2952C13.9875 12.3665 13.9875 12.3665 13.9875 12.3665ZM5.56252 11.7963C5.61653 11.725 5.67053 11.6537 5.72454 11.725C5.67053 11.725 5.61653 11.725 5.56252 11.7963ZM17.0118 3.24354C17.3359 3.24354 17.6599 3.31481 17.9839 3.38608C17.6599 3.24354 17.3359 3.24354 17.0118 3.24354ZM15.0676 7.3061L15.0136 7.37737L15.0676 7.3061ZM6.42662 25.9796C5.83255 25.552 5.23848 24.9105 4.86044 24.1265C5.23848 24.9105 5.83255 25.552 6.42662 25.9796ZM11.9893 6.94973C12.0433 6.87846 12.1513 6.73591 12.2053 6.66464C12.1513 6.73591 12.0973 6.87846 11.9893 6.94973ZM8.53286 12.2952C8.58686 12.1527 8.64087 12.0814 8.74888 11.9388C8.69488 12.0101 8.58686 12.1527 8.53286 12.2952ZM10.4771 9.15919C10.5311 9.08792 10.6391 8.94537 10.6931 8.8741C10.6391 8.94537 10.5311 9.08792 10.4771 9.15919ZM12.5293 6.30827C12.4753 6.37955 12.4213 6.45082 12.3673 6.52209C12.4213 6.45082 12.4753 6.37955 12.5293 6.30827ZM11.2332 8.0901C11.2872 7.94755 11.3952 7.87628 11.4492 7.80501C11.3412 7.87628 11.2872 7.94755 11.2332 8.0901ZM11.5572 7.59119C11.6652 7.44864 11.7732 7.30609 11.8812 7.16355C11.7732 7.23482 11.6652 7.37737 11.5572 7.59119ZM8.15481 12.9367C8.20882 12.7941 8.26283 12.7228 8.37084 12.5803C8.31683 12.7228 8.20882 12.7941 8.15481 12.9367ZM10.3151 9.44428C10.2611 9.51556 10.153 9.6581 10.099 9.72938C10.153 9.6581 10.2611 9.51556 10.3151 9.44428ZM9.23494 5.95191C8.9109 6.16573 8.58686 6.37955 8.31683 6.59337C8.58686 6.37955 8.9109 6.16573 9.23494 5.95191ZM11.0711 8.30392C11.0171 8.37519 10.9091 8.51773 10.8551 8.58901C10.9091 8.51773 11.0171 8.37519 11.0711 8.30392ZM9.72099 10.3708C9.775 10.2283 9.88301 10.157 9.93702 10.0145C9.829 10.157 9.775 10.2283 9.72099 10.3708ZM8.9109 11.5825C8.96491 11.4399 9.07292 11.3687 9.12692 11.2261C9.07292 11.3687 9.01891 11.5112 8.9109 11.5825ZM15.6077 6.66464C15.5537 6.73591 15.4456 6.80718 15.3376 6.94973C15.4456 6.80718 15.5537 6.73591 15.6077 6.66464ZM14.7436 7.73373C14.8516 7.59119 14.9056 7.44864 15.0136 7.37737C14.9056 7.51991 14.8516 7.66246 14.7436 7.73373ZM17.2819 14.077C17.2278 14.077 17.2278 14.1483 17.1738 14.1483C17.2278 14.077 17.2278 14.077 17.2819 14.077ZM13.5014 17.1418C13.2314 17.1418 12.9614 17.1418 12.7453 17.1418C12.9074 17.1418 13.0154 17.1418 13.1774 17.1418C13.2854 17.1418 13.3934 17.1418 13.5014 17.1418ZM19.0101 12.2952C19.0101 12.2952 18.956 12.3665 19.0101 12.2952C18.956 12.3665 19.0101 12.2952 19.0101 12.2952ZM18.524 12.8654L18.578 12.7941C18.578 12.7941 18.524 12.7941 18.524 12.8654ZM19.3881 11.8676C19.3341 11.8676 19.3341 11.8676 19.3881 11.8676C19.3341 11.8676 19.3341 11.8676 19.3881 11.8676ZM17.6599 13.7207C17.6599 13.6494 17.7139 13.6494 17.6599 13.7207C17.7139 13.6494 17.6599 13.6494 17.6599 13.7207ZM7.77677 13.5781C7.83078 13.4356 7.88478 13.3643 7.9928 13.2217C7.93879 13.3643 7.83078 13.5068 7.77677 13.5781ZM18.0919 13.293L18.146 13.2217L18.0919 13.293ZM8.26283 21.4894C8.37084 21.133 8.47885 20.848 8.58686 20.4916C8.42484 20.848 8.31683 21.133 8.26283 21.4894ZM9.50497 10.6559C9.45096 10.7985 9.34295 10.8697 9.28894 11.0123C9.39696 10.8697 9.45096 10.7272 9.50497 10.6559ZM16.2557 10.5134C16.1477 10.6559 15.9857 10.7985 15.8237 10.8697C15.9857 10.7985 16.1477 10.6559 16.2557 10.5134ZM21.2243 7.44864V7.51991V7.44864ZM20.7382 4.17009C20.6302 3.81372 20.4682 3.52863 20.2522 3.17227C20.4142 3.45736 20.5762 3.81372 20.7382 4.17009ZM15.8237 10.941C15.7157 11.0836 15.5537 11.1548 15.4456 11.2974C15.5537 11.1548 15.7157 11.0123 15.8237 10.941ZM16.3637 10.4421C16.4718 10.3708 16.5798 10.2283 16.6878 10.157C16.5798 10.2283 16.4718 10.2996 16.3637 10.4421ZM17.2278 9.51555C17.3359 9.37301 17.4439 9.30174 17.4979 9.15919C17.4439 9.30174 17.3359 9.44428 17.2278 9.51555ZM16.7958 10.0145C16.9038 9.87192 17.0658 9.72937 17.1738 9.58683C17.0118 9.72937 16.9038 9.87192 16.7958 10.0145ZM13.6634 9.44428C13.5554 9.6581 13.4474 9.80065 13.3394 10.0145C13.4474 9.80065 13.5554 9.58683 13.6634 9.44428ZM13.2314 10.157C13.1234 10.2996 13.0694 10.4421 12.9614 10.5846C13.0694 10.5134 13.1234 10.2996 13.2314 10.157ZM12.6373 6.09445C12.6913 6.02318 12.7453 5.95191 12.7993 5.88064C12.7453 6.02318 12.6913 6.02318 12.6373 6.09445ZM14.0415 12.3665C14.1495 12.2952 14.2575 12.2239 14.3655 12.1527C14.2575 12.2239 14.1495 12.2952 14.0415 12.3665ZM15.3376 11.3687C15.2296 11.4399 15.1216 11.5825 14.9596 11.6537C15.0676 11.5825 15.1756 11.4399 15.3376 11.3687ZM20.7382 4.17009C20.8463 4.52645 20.9543 4.81154 21.0623 5.16791C20.9543 4.81154 20.8463 4.45518 20.7382 4.17009ZM21.0623 5.09663C21.1703 5.59554 21.2243 6.02318 21.2783 6.45082C21.2243 6.09445 21.1703 5.59554 21.0623 5.09663ZM14.4735 12.0101C14.6356 11.9388 14.7436 11.7963 14.9056 11.6537C14.7436 11.7963 14.5815 11.9388 14.4735 12.0101ZM19.2261 1.81808C19.4961 2.10317 19.7661 2.38826 19.9822 2.67336C19.7121 2.38826 19.4961 2.10317 19.2261 1.81808ZM8.31683 6.59337C7.39873 7.23482 6.58863 7.94755 5.88656 8.66028C6.58863 7.94755 7.39873 7.23482 8.31683 6.59337ZM18.578 3.67118C18.524 3.5999 18.416 3.5999 18.362 3.52863C18.416 3.52863 18.524 3.5999 18.578 3.67118ZM5.88656 8.66028C5.67053 8.8741 5.45451 9.15919 5.23848 9.37301C5.4005 9.15919 5.61652 8.94537 5.88656 8.66028ZM5.18448 9.37301C4.96845 9.58683 4.80643 9.87192 4.59041 10.0857C4.80643 9.87192 5.02246 9.6581 5.18448 9.37301ZM13.7715 3.74245C13.2314 3.88499 12.6913 4.09881 12.2053 4.31263C12.7453 4.09881 13.2314 3.88499 13.7715 3.74245ZM9.23494 5.95191C10.153 5.31045 11.1792 4.74027 12.2053 4.31263C11.1792 4.74027 10.153 5.31045 9.23494 5.95191ZM17.9839 8.58901C18.0919 8.44646 18.146 8.30392 18.254 8.23264C18.146 8.37519 18.0379 8.51773 17.9839 8.58901ZM18.254 3.45736C18.146 3.38608 18.0919 3.38608 17.9839 3.38608C18.0379 3.38608 18.146 3.38608 18.254 3.45736ZM3.94233 11.0836C4.15836 10.7272 4.37438 10.4421 4.64441 10.0857C4.37438 10.4421 4.10435 10.7985 3.94233 11.0836ZM18.578 7.66246C18.632 7.51991 18.74 7.37737 18.794 7.23482C18.74 7.37737 18.686 7.51991 18.578 7.66246ZM18.524 7.73373C18.47 7.87628 18.362 8.01882 18.308 8.0901C18.416 8.01882 18.47 7.87628 18.524 7.73373ZM5.77854 11.725C5.77854 11.725 5.72454 11.725 5.77854 11.725C5.72454 11.725 5.77854 11.725 5.77854 11.725ZM19.0641 6.66464C19.1181 6.52209 19.1721 6.37955 19.1721 6.237C19.1181 6.37955 19.1181 6.52209 19.0641 6.66464ZM19.0101 6.80718C18.956 6.94973 18.902 7.021 18.848 7.16355C18.902 7.021 18.956 6.87846 19.0101 6.80718ZM3.94233 11.0836C3.83432 11.2974 3.6723 11.5112 3.6183 11.725C3.6723 11.5112 3.78032 11.2974 3.94233 11.0836ZM19.1721 6.16573C19.2261 6.02318 19.2261 5.95191 19.2261 5.80936C19.2261 5.95191 19.2261 6.09446 19.1721 6.16573ZM17.0118 3.24354C16.3097 3.24354 15.6077 3.31481 14.8516 3.45736C15.5537 3.31481 16.3097 3.24354 17.0118 3.24354ZM14.7436 5.16791C14.7976 5.16791 14.7976 5.23918 14.8516 5.23918C14.8516 5.16791 14.7976 5.16791 14.7436 5.16791ZM14.5275 5.02536C14.5815 5.02536 14.5815 5.02536 14.6356 5.09663C14.6356 5.09663 14.5815 5.09663 14.5275 5.02536ZM14.4735 5.02536C14.4195 5.02536 14.3655 5.02536 14.3655 5.02536C14.3655 5.02536 14.4195 5.02536 14.4735 5.02536ZM14.0415 4.95409C14.0955 4.95409 14.1495 4.95409 14.2035 4.95409C14.1495 4.95409 14.0955 4.95409 14.0415 4.95409ZM15.0676 5.31045C15.0136 5.31045 15.0136 5.23918 14.9596 5.23918C14.9596 5.31045 15.0136 5.31045 15.0676 5.31045ZM15.1216 5.38173C15.1756 5.38173 15.1756 5.453 15.1756 5.453C15.1756 5.453 15.1216 5.453 15.1216 5.38173ZM19.7661 11.3687L19.7121 11.4399C19.7121 11.3687 19.7121 11.3687 19.7661 11.3687ZM13.4474 5.16791C13.3934 5.16791 13.3934 5.23918 13.3394 5.23918C13.3934 5.23918 13.3934 5.16791 13.4474 5.16791ZM12.9074 5.80936C12.9614 5.73809 13.0154 5.66682 13.0154 5.66682C13.0154 5.66682 12.9614 5.73809 12.9074 5.80936ZM17.6059 9.08792C17.7139 8.94537 17.8219 8.80283 17.9299 8.66028C17.8219 8.80283 17.7139 8.94537 17.6059 9.08792ZM13.1234 5.52427C13.1774 5.453 13.2314 5.453 13.2314 5.38173C13.2314 5.38173 13.1774 5.453 13.1234 5.52427ZM15.3376 5.66682L15.2836 5.59555C15.2836 5.59555 15.2836 5.59555 15.3376 5.66682ZM19.3341 5.31045C19.3341 5.453 19.3341 5.59554 19.2801 5.73809C19.2801 5.59554 19.3341 5.453 19.3341 5.31045ZM13.9335 4.95409H13.8795C13.8795 4.95409 13.8795 4.95409 13.9335 4.95409C13.9335 4.95409 13.8795 4.95409 13.9335 4.95409ZM18.848 3.885C18.956 4.02754 19.0641 4.17009 19.1181 4.31263C19.0641 4.17009 18.956 4.02754 18.848 3.885ZM15.0676 7.3061C15.1216 7.23482 15.1756 7.16355 15.2836 7.09228C15.2296 7.09228 15.1756 7.16355 15.0676 7.3061ZM20.0902 10.7985C20.0902 10.8697 20.0362 10.8697 20.0902 10.7985C20.0362 10.8697 20.0902 10.8697 20.0902 10.7985ZM13.9875 8.8741C13.8795 9.01665 13.7715 9.15919 13.7174 9.37301C13.8255 9.23047 13.8795 9.01665 13.9875 8.8741ZM21.0083 8.73155C21.0083 8.66028 21.0083 8.66028 21.0083 8.73155C21.0083 8.66028 21.0083 8.66028 21.0083 8.73155ZM20.8463 9.30174C20.8463 9.30174 20.8463 9.23046 20.9003 9.23046C20.8463 9.23046 20.8463 9.23046 20.8463 9.30174ZM21.1163 8.16137V8.0901C21.1703 8.0901 21.1703 8.0901 21.1163 8.16137ZM14.0955 8.73155C14.1495 8.58901 14.2575 8.51773 14.3115 8.37519C14.2575 8.51773 14.1495 8.58901 14.0955 8.73155ZM15.6617 6.45082C15.6617 6.45082 15.6617 6.52209 15.6617 6.45082C15.6617 6.52209 15.6617 6.45082 15.6617 6.45082ZM14.7436 7.80501C14.6356 7.94755 14.5275 8.0901 14.4195 8.23264C14.5275 8.0901 14.6356 7.94755 14.7436 7.80501ZM15.5537 6.09445C15.5537 6.09445 15.5537 6.02318 15.4997 6.02318C15.5537 6.09446 15.5537 6.09445 15.5537 6.09445ZM15.4997 5.95191L15.4456 5.88064C15.4997 5.88064 15.4997 5.95191 15.4997 5.95191ZM15.4456 5.80936L15.3916 5.73809C15.3916 5.73809 15.3916 5.73809 15.4456 5.80936ZM15.6617 6.30827V6.37955C15.6617 6.37955 15.6617 6.37955 15.6617 6.30827ZM15.6077 6.16573V6.237C15.6077 6.237 15.6077 6.237 15.6077 6.16573ZM20.5762 9.87192L20.6302 9.80065C20.6302 9.80065 20.6302 9.80065 20.5762 9.87192ZM21.2783 6.87846C21.2783 7.09228 21.2783 7.23482 21.2243 7.44864C21.2243 7.51991 21.2243 7.51991 21.2243 7.51991C21.2243 7.66246 21.1703 7.87628 21.1703 8.01882V8.0901C21.1163 8.23264 21.1163 8.44646 21.0623 8.58901C21.0083 8.73155 20.9543 8.94537 20.9003 9.08792C20.9003 9.08792 20.9003 9.15919 20.8463 9.15919C20.7923 9.30174 20.7382 9.51556 20.6302 9.6581L20.5762 9.72938C20.5222 9.87192 20.4142 10.0145 20.3602 10.2283C20.3602 10.2283 20.3602 10.2283 20.3602 10.2996C20.3062 10.4421 20.1982 10.5846 20.0902 10.7272L20.0362 10.7985C19.9282 10.941 19.8201 11.0836 19.7661 11.2261L19.7121 11.2974C19.6041 11.4399 19.4961 11.5825 19.3881 11.725L19.3341 11.7963C19.2261 11.9388 19.1181 12.0814 19.0101 12.2239L18.956 12.2952C18.848 12.4377 18.74 12.5803 18.578 12.7228L18.524 12.7941C18.416 12.9367 18.254 13.0792 18.146 13.1505L18.0919 13.2217C17.9839 13.3643 17.8219 13.4356 17.7139 13.5781C17.7139 13.5781 17.6599 13.5781 17.6599 13.6494C17.5519 13.7919 17.3899 13.8632 17.2278 14.0058C17.1738 14.0058 17.1738 14.077 17.1738 14.077C17.0658 14.2196 16.9038 14.2908 16.7418 14.4334L16.6878 14.5047C16.5798 14.6472 16.4178 14.7185 16.3097 14.861C15.8237 15.2174 15.3376 15.645 14.8516 15.9301H14.9056C14.9056 15.9301 14.9056 15.9301 14.9596 15.9301H15.0136C15.2836 16.0014 15.9317 16.2152 16.5258 16.9279C17.9299 18.6385 18.254 20.4916 18.416 22.3447C18.578 24.4116 18.416 26.4785 17.7679 28.3316C17.0658 30.5411 15.8237 32.4654 14.4195 33.9622C12.9074 35.5302 11.1792 36.6705 9.34295 37.3833C7.66876 38.0247 5.83255 38.3811 4.10435 38.0247C2.53817 37.7396 0.701966 36.4567 0.701966 34.0334C0.701966 31.9665 2.21414 30.6123 3.51029 29.7571C3.6723 29.6145 3.83432 29.5432 3.99634 29.472C5.67053 28.4742 7.77677 27.5476 9.55897 26.8349C10.4771 26.4785 12.4213 25.6232 13.4474 25.4094C13.5554 25.4094 13.9335 25.3381 14.1495 25.4094C14.2575 25.4094 14.3115 25.4807 14.2575 25.6232C14.0955 25.7658 13.9335 25.8371 13.7174 25.9796C12.5833 26.6923 11.1792 27.4051 10.153 27.9752C8.85689 28.688 7.56075 29.472 6.31861 30.3272C6.21059 30.3985 6.04857 30.4698 5.94056 30.6123C5.29249 31.04 4.4824 31.5389 4.10435 32.3229C3.24025 33.9622 5.45451 34.3898 6.15659 34.3898C10.6931 34.0334 13.4474 30.6836 14.5815 28.9731C15.8777 26.9061 17.1738 23.6276 16.5798 20.6341C16.4178 19.7076 16.0937 18.8523 15.5537 18.0683C15.0676 17.3556 14.3655 17.213 13.6094 17.213C13.5014 17.213 13.3934 17.213 13.2854 17.213C13.1774 17.213 13.0154 17.213 12.8533 17.213C12.7453 17.213 12.5833 17.213 12.4213 17.2843C12.0973 17.3556 11.7732 17.4981 11.3412 17.6407C11.2332 17.7119 11.1252 17.7119 10.9631 17.7832C10.8551 17.8545 10.7471 17.8545 10.5851 17.9258C10.3691 17.9258 10.2611 17.997 10.153 17.997C9.93702 18.0683 9.775 18.0683 9.61298 18.0683C9.55897 18.0683 9.45096 18.0683 9.39695 18.0683V18.1396C9.28894 18.4959 9.18093 18.781 9.01891 19.0661C8.96491 19.1374 8.96491 19.2799 8.9109 19.3512C8.80289 19.6363 8.74888 19.8501 8.64087 20.1352C8.58686 20.2065 8.58686 20.349 8.53286 20.4203C8.42484 20.7767 8.31683 21.0618 8.20882 21.4181V21.4894C8.10081 21.8458 8.0468 22.2021 7.93879 22.4872C7.93879 22.5585 7.93879 22.5585 7.88478 22.5585C7.88478 22.6298 7.88478 22.6298 7.88478 22.701C7.83078 22.8436 7.83078 22.9861 7.77677 23.1287C7.77677 23.2 7.77677 23.2712 7.72276 23.2712C7.72276 23.4138 7.66876 23.485 7.66876 23.6276C7.66876 23.6989 7.66876 23.6989 7.66876 23.7701C7.61475 24.269 7.56075 24.768 7.66876 25.1956C7.72277 25.552 7.56075 25.8371 7.34472 25.9796C7.07469 26.1221 6.69665 26.1221 6.42662 25.9083C5.83255 25.4807 5.23848 24.8392 4.86044 24.0552C4.75243 23.8414 4.69842 23.6989 4.64441 23.485C4.59041 23.2712 4.5364 22.9861 4.4824 22.7723C4.4824 22.701 4.4824 22.5585 4.4824 22.4872C4.4824 22.3447 4.4824 22.2021 4.4824 21.9883C4.4824 21.917 4.4824 21.8458 4.4824 21.8458C4.4824 21.7032 4.4824 21.632 4.5364 21.4894C4.5364 21.4181 4.5364 21.3469 4.59041 21.2756C4.59041 21.2043 4.64441 21.0618 4.64441 20.9905C4.64441 20.9192 4.69842 20.848 4.69842 20.7767C4.69842 20.6341 4.75243 20.5629 4.75243 20.4203C4.75243 20.349 4.80643 20.2778 4.80643 20.1352C4.86044 20.0639 4.86044 19.9214 4.91444 19.7789C4.96845 19.7076 4.96845 19.565 5.02246 19.4938C5.07646 19.3512 5.07646 19.2799 5.13047 19.1374C5.18448 19.0661 5.18448 18.9236 5.23848 18.8523L5.34649 18.4959C5.4005 18.4247 5.4005 18.2821 5.45451 18.2109C5.50851 18.0683 5.56252 17.997 5.61652 17.8545C5.67053 17.7832 5.72454 17.6407 5.72454 17.5694C5.77854 17.4269 5.83255 17.3556 5.88656 17.213C5.94056 17.1418 5.99457 16.9992 6.04858 16.9279C6.10258 16.7854 6.15659 16.7141 6.21059 16.5716C6.2646 16.5003 6.31861 16.3578 6.37261 16.2865C6.42662 16.1439 6.48062 16.0727 6.53463 15.9301C6.58864 15.8588 6.64264 15.7163 6.69665 15.645C6.75065 15.5025 6.80466 15.4312 6.85867 15.2887C6.91267 15.1461 6.96668 15.0748 7.02069 14.9323C7.07469 14.7898 7.1287 14.7185 7.1827 14.5759C7.23671 14.4334 7.29072 14.3621 7.34472 14.2196C7.39873 14.077 7.45273 14.0058 7.56075 13.8632C7.61475 13.7207 7.66876 13.6494 7.72276 13.5068C7.77677 13.3643 7.83078 13.293 7.93879 13.1505C7.9928 13.0079 8.0468 12.9367 8.10081 12.7941C8.15481 12.6516 8.20882 12.5803 8.31683 12.4377C8.37084 12.3665 8.42485 12.2239 8.47885 12.1527C8.53286 12.0101 8.58686 11.9388 8.69488 11.7963C8.74888 11.725 8.80289 11.5825 8.85689 11.5112C8.9109 11.3687 8.96491 11.2974 9.07292 11.1548C9.12692 11.0836 9.18093 10.941 9.23494 10.8697C9.28894 10.7272 9.34295 10.6559 9.45096 10.5134C9.50497 10.4421 9.55897 10.2996 9.61298 10.2283C9.66699 10.0857 9.72099 10.0145 9.82901 9.94319C9.88301 9.87192 9.93702 9.72937 9.99102 9.6581C10.045 9.58683 10.099 9.44428 10.207 9.37301C10.2611 9.30174 10.3151 9.23046 10.3691 9.08792C10.4231 9.01665 10.5311 8.8741 10.5851 8.80283C10.6391 8.73155 10.6931 8.66028 10.7471 8.58901C10.8011 8.51773 10.9091 8.37519 10.9631 8.30392C11.0171 8.23264 11.0711 8.16137 11.1252 8.0901C11.1792 7.94755 11.2872 7.87628 11.3412 7.80501C11.3952 7.73373 11.4492 7.66246 11.4492 7.59119C11.5572 7.44864 11.6652 7.30609 11.7732 7.16355C11.8272 7.09228 11.8272 7.09228 11.8812 7.021C11.9352 6.94973 12.0433 6.80719 12.0973 6.73591C12.1513 6.66464 12.2053 6.59337 12.2053 6.59337C12.2593 6.52209 12.3133 6.45082 12.3673 6.37955C12.4213 6.30827 12.4753 6.30827 12.4753 6.237C12.5293 6.16573 12.5833 6.09446 12.6373 6.02318C12.6913 5.95191 12.6913 5.95191 12.7453 5.88064C12.7993 5.80936 12.8533 5.73809 12.8533 5.73809C12.9074 5.66682 12.9074 5.66682 12.9614 5.59555C13.0154 5.52427 13.0694 5.52427 13.0694 5.453C13.1234 5.38173 13.1234 5.38173 13.1774 5.38173C13.2314 5.38173 13.2314 5.31045 13.2854 5.31045C13.3934 5.16791 13.5554 5.09663 13.6634 5.09663H13.7174C13.7715 5.09663 13.8255 5.09663 13.8255 5.09663C13.8795 5.09663 13.9335 5.09663 13.9875 5.09663C14.0415 5.09663 14.0415 5.09663 14.0955 5.09663C14.1495 5.09663 14.2035 5.09663 14.2035 5.09663C14.2575 5.09663 14.2575 5.09663 14.3115 5.16791C14.3655 5.16791 14.3655 5.16791 14.4195 5.23918C14.4735 5.23918 14.4735 5.23918 14.5275 5.31045C14.5815 5.31045 14.5815 5.38173 14.6356 5.38173C14.6896 5.38173 14.6896 5.453 14.7436 5.453C14.7976 5.453 14.7976 5.52427 14.8516 5.52427C14.9056 5.52427 14.9056 5.59555 14.9056 5.59555C14.9596 5.59555 14.9596 5.66682 14.9596 5.66682L15.0136 5.73809L15.0676 5.80936L15.1216 5.88064L15.1756 5.95191L15.2296 6.02318L15.2836 6.09445C15.2836 6.09445 15.2836 6.16573 15.3376 6.16573C15.3376 6.16573 15.3376 6.237 15.3916 6.237V6.30827V6.37955V6.45082V6.52209V6.59337V6.66464V6.73591V6.80718C15.3916 6.80718 15.3916 6.87846 15.3376 6.87846C15.2836 6.94973 15.1756 7.021 15.1216 7.16355L15.0676 7.23482C15.0136 7.30609 14.9596 7.37737 14.8516 7.51991C14.7976 7.51991 14.7976 7.59119 14.7436 7.59119C14.6356 7.73373 14.5815 7.80501 14.4735 7.94755C14.3655 8.0901 14.2575 8.23264 14.1495 8.37519C14.0955 8.44646 14.0955 8.44646 14.0415 8.51774C13.9875 8.66028 13.8795 8.73155 13.8255 8.8741C13.7715 8.94537 13.7715 8.94537 13.7174 9.01665C13.6094 9.15919 13.5014 9.30174 13.4474 9.51555L13.3934 9.58683C13.2854 9.80065 13.1774 9.94319 13.0694 10.157C13.0154 10.2283 13.0154 10.2996 12.9614 10.2996C12.8533 10.4421 12.7993 10.5846 12.6913 10.7272C12.6913 10.7985 12.6373 10.7985 12.6373 10.7985C12.0973 11.725 11.5572 12.7941 11.0171 13.8632C11.7192 13.6494 12.6913 13.1505 13.7174 12.4377C13.7174 12.4377 13.7715 12.4377 13.7715 12.3665C13.8795 12.2952 13.9875 12.2239 14.0955 12.1527C14.1495 12.1527 14.1495 12.0814 14.2035 12.0814C14.3655 12.0101 14.4735 11.8676 14.6356 11.725C14.6896 11.725 14.6896 11.6537 14.6896 11.6537C14.7976 11.5825 14.9056 11.4399 15.0676 11.3687C15.1216 11.3687 15.1216 11.2974 15.1756 11.2974C15.2836 11.1548 15.4456 11.0836 15.5537 10.941C15.7157 10.7985 15.8237 10.6559 15.9857 10.5846C16.0397 10.5134 16.0397 10.5134 16.0937 10.5134C16.2017 10.4421 16.3097 10.2996 16.4178 10.2283C16.4718 10.2283 16.4718 10.157 16.4718 10.157C16.5798 10.0145 16.7418 9.87192 16.8498 9.72938C16.9038 9.72938 16.9038 9.6581 16.9578 9.6581C17.0658 9.51556 17.1738 9.44428 17.2278 9.30174C17.2819 9.23046 17.2819 9.23046 17.3359 9.15919C17.4439 9.01664 17.5519 8.8741 17.6599 8.73155C17.6599 8.73155 17.6599 8.73155 17.7139 8.66028C17.8219 8.51773 17.8759 8.37519 17.9839 8.30392C18.0379 8.23264 18.0379 8.23264 18.0379 8.16137C18.0919 8.01882 18.2 7.87628 18.254 7.80501C18.254 7.80501 18.254 7.73373 18.308 7.73373C18.362 7.59119 18.47 7.44864 18.524 7.3061C18.524 7.23482 18.578 7.23482 18.578 7.16355C18.632 7.021 18.686 6.94973 18.74 6.80718L18.794 6.73591C18.848 6.59337 18.902 6.45082 18.902 6.30827V6.237C18.956 6.09446 18.956 6.02318 18.956 5.88064C18.956 5.80936 18.956 5.80936 18.956 5.73809C18.956 5.59554 19.0101 5.453 19.0101 5.31045C19.0101 5.23918 19.0101 5.09663 19.0101 5.02536C19.0101 4.88282 18.956 4.669 18.902 4.52645C18.902 4.45518 18.848 4.3839 18.848 4.31263C18.794 4.17009 18.686 4.02754 18.578 3.885C18.524 3.81372 18.416 3.74245 18.308 3.67118C18.254 3.5999 18.1459 3.5999 18.0919 3.52863C18.0379 3.52863 18.0379 3.52863 17.9839 3.45736C17.8759 3.38608 17.7679 3.38608 17.7139 3.38608C17.4439 3.31481 17.1198 3.24354 16.7418 3.24354C16.0397 3.24354 15.3376 3.31481 14.5815 3.45736C14.2035 3.52863 13.8795 3.5999 13.5014 3.74245C12.9614 3.88499 12.4213 4.09881 11.9352 4.31263C10.9091 4.74027 9.88301 5.31045 8.96491 5.95191C8.64087 6.16573 8.31683 6.37955 8.0468 6.59337C7.1287 7.23482 6.3186 7.94755 5.61652 8.66028C5.4005 8.8741 5.18448 9.15919 4.96845 9.37301C4.75243 9.58683 4.59041 9.87192 4.37438 10.0857C4.10435 10.4421 3.88833 10.7985 3.6723 11.0836C3.56429 11.2974 3.40227 11.5112 3.34827 11.725C2.7542 13.0792 3.13224 13.2217 3.78032 13.0079C3.83432 13.0079 3.94233 12.9367 3.99634 12.9367C4.15836 12.8654 4.32038 12.7941 4.4824 12.6516C4.5364 12.5803 4.64442 12.509 4.69842 12.509C4.96845 12.2952 5.18448 12.0814 5.29249 11.9388L5.34649 11.8676C5.4005 11.7963 5.45451 11.7963 5.50851 11.7963H5.56252C5.61653 11.8676 5.61652 11.9388 5.61652 12.1527C5.61652 12.7228 5.4005 13.5068 5.02246 14.1483C4.96845 14.2196 4.91445 14.3621 4.86044 14.4334C4.75243 14.5759 4.59041 14.7898 4.4824 14.9323C4.21237 15.2174 3.88833 15.4312 3.51029 15.5025C3.34827 15.5738 3.13224 15.5738 2.97022 15.5025C2.48417 15.4312 1.94411 14.9323 1.56606 14.2908C0.863983 13.1505 0.37793 11.5112 0.37793 10.7272C0.37793 5.453 10.045 -0.320107 16.2557 0.606441C16.7418 0.677714 17.1738 0.82026 17.5519 0.962805C17.9299 1.10535 18.308 1.31917 18.632 1.60426C18.794 1.74681 18.956 1.81808 19.0641 1.96063C19.3341 2.24572 19.6041 2.53081 19.8201 2.8159C19.9282 2.95845 20.0362 3.10099 20.1442 3.31481C20.3062 3.5999 20.4682 3.95627 20.6302 4.31263C20.7382 4.669 20.8463 4.95409 20.9543 5.31045C21.0623 5.80936 21.1163 6.237 21.1703 6.66464C21.2783 6.59337 21.2783 6.73591 21.2783 6.87846ZM8.26283 21.4894C8.37084 21.133 8.47885 20.848 8.58686 20.4916C8.42484 20.848 8.31683 21.133 8.26283 21.4894ZM40.1265 28.5454C40.2345 28.8305 40.1265 28.8305 39.9644 28.8305C38.1282 28.7592 36.346 28.9018 34.5098 29.1869C32.6736 29.4007 30.8914 29.8283 29.1092 30.3272C27.327 30.8262 25.5448 31.4676 23.8166 32.1803C22.9525 32.5367 22.0884 32.9643 21.2783 33.392C20.9003 33.6058 20.5222 33.8196 20.1442 33.9622C19.9822 34.0334 19.8741 34.1047 19.7121 34.176H19.6581H19.6041C19.5501 34.2473 19.4961 34.2473 19.4421 34.3185C19.4421 34.3185 19.3881 34.3185 19.3881 34.3898C19.3881 34.3898 19.3341 34.3898 19.3341 34.4611C19.3341 34.4611 19.2801 34.4611 19.2801 34.5323C19.2801 34.5323 19.2261 34.5324 19.2261 34.6036C19.0641 34.7462 18.902 34.8887 18.74 35.1025C18.632 35.2451 18.47 35.2451 18.362 35.1738C18.2 35.1025 18.0919 34.8887 18.0379 34.6036C18.0379 34.4611 17.9839 34.3185 17.9839 34.176C17.9839 33.8196 17.9839 33.4633 18.0379 33.1069C18.0919 32.9643 18.0919 32.8931 18.146 32.7505C18.2 32.608 18.254 32.5367 18.362 32.3942C18.416 32.3229 18.416 32.3229 18.47 32.2516C18.524 32.1803 18.578 32.1091 18.632 32.1091C18.848 31.9665 19.0641 31.824 19.2801 31.7527C19.7121 31.5389 20.1442 31.2538 20.6302 31.1113C21.5483 30.6836 22.4124 30.3272 23.3305 29.9709L24.6807 29.472L26.0308 29.0443L27.435 28.688L28.8392 28.3316C30.6754 27.904 32.5656 27.6189 34.4558 27.5476C35.4819 27.4763 36.562 27.5476 37.5882 27.6901C37.9662 27.7614 38.3443 27.8327 38.7223 27.9752C39.0463 28.0465 39.4244 28.1178 39.7484 28.3316C39.8564 28.4029 40.0184 28.4742 40.1265 28.6167C40.0724 28.4742 40.0724 28.5454 40.1265 28.5454Z" fill="white"/>
</svg>
