<svg width="80" height="80" viewBox="0 0 80 80" fill="none" xmlns="http://www.w3.org/2000/svg">
<path d="M20 0C17.25 0 15 2.25 15 5V75C15 77.75 17.25 80 20 80H70C72.75 80 75 77.75 75 75V20L55 0H20Z" fill="#E2E5E7"/>
<path d="M60 20H75L55 0V15C55 17.75 57.25 20 60 20Z" fill="#B0B7BD"/>
<path d="M75 35L60 20H75V35Z" fill="#CAD1D8"/>
<path d="M65 65C65 66.375 63.875 67.5 62.5 67.5H7.5C6.125 67.5 5 66.375 5 65V40C5 38.625 6.125 37.5 7.5 37.5H62.5C63.875 37.5 65 38.625 65 40V65Z" fill="#52AC62"/>
<path d="M15.8975 47.3675C15.8975 46.7075 16.4175 45.9875 17.255 45.9875H21.8725C24.4725 45.9875 26.8125 47.7275 26.8125 51.0625C26.8125 54.2225 24.4725 55.9825 21.8725 55.9825H18.535V58.6225C18.535 59.5025 17.975 60 17.255 60C16.595 60 15.8975 59.5025 15.8975 58.6225V47.3675ZM18.535 48.505V53.485H21.8725C23.2125 53.485 24.2725 52.3025 24.2725 51.0625C24.2725 49.665 23.2125 48.505 21.8725 48.505H18.535Z" fill="white"/>
<path d="M30.7277 60C30.0677 60 29.3477 59.64 29.3477 58.7625V47.4075C29.3477 46.69 30.0677 46.1675 30.7277 46.1675H35.3051C44.4401 46.1675 44.2401 60 35.4851 60H30.7277ZM31.9877 48.6075V57.5625H35.3051C40.7026 57.5625 40.9426 48.6075 35.3051 48.6075H31.9877Z" fill="white"/>
<path d="M47.4798 48.7675V51.945H52.5773C53.2973 51.945 54.0173 52.665 54.0173 53.3625C54.0173 54.0225 53.2973 54.5625 52.5773 54.5625H47.4798V58.76C47.4798 59.46 46.9823 59.9975 46.2823 59.9975C45.4022 59.9975 44.8647 59.46 44.8647 58.76V47.405C44.8647 46.6875 45.4047 46.165 46.2823 46.165H53.2998C54.1798 46.165 54.6998 46.6875 54.6998 47.405C54.6998 48.045 54.1798 48.765 53.2998 48.765H47.4798V48.7675Z" fill="white"/>
<path d="M62.5 67.5H15V70H62.5C63.875 70 65 68.875 65 67.5V65C65 66.375 63.875 67.5 62.5 67.5Z" fill="#CAD1D8"/>
</svg>
