<svg width="50" height="50" viewBox="0 0 50 50" fill="none" xmlns="http://www.w3.org/2000/svg">
<circle cx="25" cy="25" r="25" fill="#E5E5E5"/>
<path fill-rule="evenodd" clip-rule="evenodd" d="M24 17C20.134 17 17 20.134 17 24C17 27.866 20.134 31 24 31C27.866 31 31 27.866 31 24C31 20.134 27.866 17 24 17ZM15 24C15 19.0294 19.0294 15 24 15C28.9706 15 33 19.0294 33 24C33 28.9706 28.9706 33 24 33C19.0294 33 15 28.9706 15 24Z" fill="white"/>
<path fill-rule="evenodd" clip-rule="evenodd" d="M28.9428 28.9433C29.3333 28.5528 29.9665 28.5528 30.357 28.9433L34.707 33.2933C35.0975 33.6838 35.0975 34.317 34.707 34.7075C34.3165 35.098 33.6833 35.098 33.2928 34.7075L28.9428 30.3575C28.5523 29.967 28.5523 29.3338 28.9428 28.9433Z" fill="white"/>
</svg>
