<svg width="51" height="50" viewBox="0 0 51 50" fill="none" xmlns="http://www.w3.org/2000/svg">
<g opacity="0.5">
<path d="M49.7158 25C49.7158 38.5305 38.7363 49.5 25.1914 49.5C11.6465 49.5 0.666992 38.5305 0.666992 25C0.666992 11.4695 11.6465 0.5 25.1914 0.5C38.7363 0.5 49.7158 11.4695 49.7158 25Z" stroke="white"/>
<path d="M39.6127 32.7873C39.5732 32.7023 39.5364 32.6317 39.5022 32.5752C38.9364 31.5572 37.8551 30.3076 36.2591 28.8261L36.2254 28.7922L36.2085 28.7756L36.1914 28.7585H36.1743C35.4499 28.0687 34.9912 27.6048 34.7991 27.3673C34.4476 26.915 34.3689 26.4571 34.561 25.9931C34.6967 25.6426 35.2065 24.9023 36.0892 23.7712C36.5535 23.1718 36.9212 22.6914 37.1927 22.3294C39.1512 19.7283 40.0003 18.0661 39.7398 17.3423L39.6386 17.1732C39.5706 17.0713 39.3952 16.9782 39.1125 16.8932C38.8292 16.8084 38.4671 16.7944 38.0255 16.8509L33.1355 16.8846C33.0563 16.8566 32.9432 16.8592 32.7958 16.8932C32.6486 16.9272 32.575 16.9442 32.575 16.9442L32.4899 16.9867L32.4223 17.0378C32.3657 17.0715 32.3034 17.1309 32.2355 17.2157C32.1679 17.3002 32.1113 17.3995 32.0661 17.5125C31.5337 18.8809 30.9284 20.1531 30.2491 21.3291C29.8302 22.0304 29.4455 22.6381 29.0942 23.1527C28.7434 23.6671 28.4491 24.0461 28.2116 24.2891C27.9737 24.5322 27.759 24.7271 27.5662 24.8742C27.3737 25.0215 27.2267 25.0837 27.125 25.0609C27.023 25.0382 26.9269 25.0156 26.836 24.993C26.6776 24.8912 26.5502 24.7527 26.4542 24.5774C26.3577 24.4021 26.2928 24.1815 26.2588 23.9158C26.225 23.6498 26.205 23.4211 26.1993 23.2288C26.194 23.0367 26.1965 22.765 26.208 22.4144C26.2197 22.0637 26.225 21.8264 26.225 21.702C26.225 21.2722 26.2334 20.8058 26.2502 20.3025C26.2674 19.7993 26.2812 19.4006 26.2928 19.1068C26.3044 18.8128 26.3097 18.5017 26.3097 18.1737C26.3097 17.8458 26.2897 17.5886 26.2502 17.4019C26.2112 17.2155 26.1513 17.0345 26.0724 16.859C25.993 16.6838 25.8768 16.5482 25.7243 16.4519C25.5716 16.3558 25.3816 16.2795 25.1556 16.2228C24.5555 16.0872 23.7915 16.0138 22.8631 16.0024C20.7577 15.9798 19.4049 16.1157 18.805 16.4097C18.5673 16.5339 18.3522 16.7037 18.1598 16.9184C17.956 17.1673 17.9276 17.3031 18.0747 17.3254C18.754 17.4271 19.2349 17.6703 19.5179 18.0547L19.6199 18.2585C19.6993 18.4055 19.7785 18.6657 19.8578 19.0388C19.9369 19.4119 19.988 19.8247 20.0105 20.2768C20.067 21.1025 20.067 21.8093 20.0105 22.3972C19.9538 22.9854 19.9003 23.4433 19.8492 23.7713C19.7981 24.0992 19.7217 24.365 19.6199 24.5685C19.5179 24.772 19.4501 24.8965 19.4161 24.9416C19.3821 24.9868 19.3538 25.0152 19.3313 25.0264C19.1842 25.0827 19.0312 25.1114 18.8728 25.1114C18.7142 25.1114 18.5218 25.0322 18.2955 24.8738C18.0692 24.7154 17.8344 24.4978 17.5909 24.2207C17.3475 23.9435 17.073 23.5562 16.7673 23.0587C16.4618 22.5611 16.1448 21.9731 15.8165 21.2946L15.5449 20.8026C15.3751 20.486 15.1431 20.0251 14.8488 19.4202C14.5543 18.8151 14.294 18.2297 14.0677 17.6643C13.9773 17.4268 13.8414 17.246 13.6603 17.1216L13.5753 17.0706C13.5188 17.0254 13.4281 16.9775 13.3037 16.9264C13.1791 16.8753 13.0491 16.8387 12.9131 16.8162L8.26073 16.8499C7.78532 16.8499 7.46274 16.9575 7.29289 17.1724L7.22491 17.2741C7.19096 17.3307 7.17383 17.4212 7.17383 17.5456C7.17383 17.67 7.20779 17.8227 7.27576 18.0035C7.95493 19.5982 8.69351 21.1361 9.4915 22.6175C10.2895 24.0989 10.9829 25.2923 11.5714 26.1964C12.16 27.1012 12.7599 27.9552 13.3712 28.7579C13.9826 29.5608 14.3872 30.0754 14.5852 30.3015C14.7834 30.528 14.9391 30.6973 15.0523 30.8104L15.4768 31.2174C15.7485 31.4889 16.1474 31.814 16.6738 32.1927C17.2003 32.5717 17.7832 32.9449 18.4228 33.3127C19.0624 33.6799 19.8066 33.9796 20.6557 34.2114C21.5046 34.4434 22.3309 34.5365 23.1347 34.4916H25.0874C25.4834 34.4574 25.7835 34.333 25.9874 34.1183L26.0549 34.0333C26.1004 33.9658 26.1429 33.8609 26.1822 33.7198C26.2219 33.5784 26.2416 33.4227 26.2416 33.2533C26.23 32.7672 26.2671 32.329 26.3518 31.9389C26.4364 31.5489 26.5329 31.2548 26.6407 31.0568C26.7486 30.859 26.8702 30.692 27.0057 30.5567C27.1414 30.421 27.2381 30.3389 27.2948 30.3106C27.3512 30.2821 27.3962 30.2628 27.4302 30.2512C27.7018 30.1608 28.0215 30.2484 28.3898 30.5144C28.7577 30.7801 29.1029 31.1083 29.4257 31.4983C29.7483 31.8886 30.1359 32.3265 30.5886 32.8127C31.0416 33.2991 31.4377 33.6606 31.7772 33.8984L32.1166 34.102C32.3434 34.2378 32.6377 34.3622 33 34.4753C33.3616 34.5883 33.6785 34.6166 33.9506 34.5601L38.2972 34.4923C38.7271 34.4923 39.0616 34.4212 39.2989 34.2801C39.5367 34.1388 39.6779 33.9831 39.7235 33.8137C39.7689 33.6441 39.7714 33.4517 39.7321 33.2366C39.6918 33.0221 39.6522 32.8721 39.6127 32.7873Z" fill="white"/>
</g>
</svg>
